<?xml version="1.0" standalone="no"?>
<!DOCTYPE svg PUBLIC "-//W3C//DTD SVG 20010904//EN"
 "http://www.w3.org/TR/2001/REC-SVG-20010904/DTD/svg10.dtd">
<svg version="1.0" xmlns="http://www.w3.org/2000/svg"
 width="512.000000pt" height="512.000000pt" viewBox="0 0 512.000000 512.000000"
 preserveAspectRatio="xMidYMid meet">
<metadata>
Created by potrace 1.11, written by Peter Selinger 2001-2013
</metadata>
<g transform="translate(0.000000,512.000000) scale(0.100000,-0.100000)"
fill="#000000" stroke="none">
<path d="M2415 3744 c-110 -19 -185 -41 -255 -76 -272 -132 -459 -382 -535
-718 -10 -41 -19 -84 -20 -95 -2 -11 -11 -69 -21 -130 -15 -99 -17 -215 -19
-1198 -1 -598 1 -1087 4 -1088 3 0 97 -2 209 -2 l202 -2 0 528 c0 290 3 527 6
527 3 0 18 -8 32 -19 142 -101 333 -151 582 -153 373 -3 660 143 853 435 97
146 147 268 181 443 9 44 18 93 22 109 11 53 13 378 3 440 -5 33 -11 74 -14
90 -57 361 -259 668 -533 808 -98 50 -151 68 -267 93 -100 21 -334 26 -430 8z
m295 -337 c160 -36 275 -117 365 -257 110 -169 156 -370 150 -655 -3 -169 -5
-184 -36 -310 -61 -250 -227 -433 -444 -489 -96 -24 -124 -27 -235 -28 -185 0
-330 42 -473 136 l-47 31 1 391 c1 215 5 415 10 445 4 30 10 73 13 96 24 191
114 390 227 503 65 66 159 117 247 135 50 10 180 11 222 2z"/>
</g>
</svg>
